<svg width="115" height="139" viewBox="0 0 115 139" fill="none" xmlns="http://www.w3.org/2000/svg">
<path d="M8.60001 2.6667C4.20001 5.33337 0.333344 12.1334 0.333344 17.2C0.333344 19.7334 1.26668 19.8667 10.3333 19.8667H20.3333V9.8667V3.1516e-05H16.7333C14.6 3.1516e-05 11 1.20003 8.60001 2.6667Z" fill="black"/>
<path d="M38.0667 2.53335C38.0667 4.00002 38.7334 5.06668 39.5334 4.93335C40.2 4.80002 41.6667 6.40002 42.8667 8.40002C44.8667 11.8667 44.8667 12.2667 42.6 13.8667C40.4667 15.6 40.4667 15.7334 42.4667 16.5334C43.6667 16.9334 45.5334 16.6667 46.6 15.7334C48.3334 14.4 49 14.5334 50.8667 16.8C52.8667 19.3334 53.1334 19.3334 55.4 17.0667C56.6 15.7334 57.1334 14.6667 56.4667 14.6667C55.6667 14.6667 54.7334 15.3334 54.2 16.2667C53.5334 17.2 52.7334 16.9334 51.4 15.2C49.9334 13.2 49.1334 12.9334 47 14.4C43.4 16.6667 42.7334 16.4 44.6 13.4667C45.9334 11.3334 45.5334 10 42.4667 5.46668C38.0667 -0.799983 37.8 -0.933316 38.0667 2.53335Z" fill="black"/>
<path d="M42.2 1.60002C42.7334 4.13336 45.2667 4.26669 46.2 1.86669C46.8667 2.27205e-05 46.7334 -0.133311 45.1334 1.20002C43.8 2.26669 43 2.40002 42.6 1.33336C42.2 0.533356 42.0667 0.666689 42.2 1.60002Z" fill="black"/>
<path d="M53 1.86668C54.3334 2.80001 55.6667 4.93335 55.9334 6.53335C56.3334 9.86668 55.5334 10.1333 52.8667 7.33334C51.4 5.86668 51.2667 5.33335 52.4667 5.33335C53.4 5.33335 53 4.53335 51.6667 3.46668C49.4 1.86668 48.8667 1.86668 47.4 3.86668C45.4 6.53335 45.2667 8.00001 47 8.00001C47.8 8.00001 48.2 7.33334 48.0667 6.53335C47.8 5.73335 48.4667 4.66668 49.5334 4.26668C50.6 4.00001 51 4.26668 50.6 4.93335C50.0667 5.73335 51 7.46668 52.4667 8.80001C55 11.0667 55.1334 11.0667 58.0667 8.13334C60.6 5.60001 60.7334 5.33335 58.4667 6.13335C56.7334 6.80001 56.2 6.66668 56.7334 5.73335C57.8 4.00001 54.3334 1.18111e-05 51.9334 1.18111e-05C51.1334 1.18111e-05 51.6667 0.800012 53 1.86668Z" fill="black"/>
<path d="M58.2 1.60002C58.7334 4.13336 61.2667 4.26669 62.2 1.86669C62.8667 2.27205e-05 62.7334 -0.133311 61.1334 1.20002C59.8 2.26669 59 2.40002 58.6 1.33336C58.2 0.533356 58.0667 0.666689 58.2 1.60002Z" fill="black"/>
<path d="M67.1333 0.400012C67.4 0.533345 69 1.86668 70.7333 3.20001C72.3333 4.66668 73.6667 5.33335 73.6667 4.93335C73.6667 3.60001 69.5333 1.19438e-05 68.0667 1.19438e-05C67.2667 1.19438e-05 66.8667 0.133345 67.1333 0.400012Z" fill="black"/>
<path d="M74.2 1.60002C74.7334 4.13336 77.2667 4.26669 78.2 1.86669C78.8667 2.27205e-05 78.7334 -0.133311 77.1334 1.20002C75.8 2.26669 75 2.40002 74.6 1.33336C74.2 0.533356 74.0667 0.666689 74.2 1.60002Z" fill="black"/>
<path d="M94.3333 9.73336V19.3334L104.067 19.7334L113.667 20.1334L113.8 16.4C114.333 4.80003 110.067 2.7433e-05 99.2667 2.7433e-05H94.3333V9.73336Z" fill="black"/>
<path d="M33.6667 2.66667C31.9333 3.73333 32.0667 4 34.0667 4C35.2667 4 36.3333 3.33333 36.3333 2.66667C36.3333 1.06667 36.2 1.06667 33.6667 2.66667Z" fill="black"/>
<path d="M63.2667 4.13333C61.2667 7.2 61.2667 8 63 8C63.8 8 64.2 7.33333 64.0667 6.53333C63.8 5.73333 64.6 4.66666 65.6667 4.26666C66.7333 4 67.2667 4.13333 66.6 4.66666C66.0667 5.33333 66.6 6.8 67.8 8.13333C69.8 10.2667 69.5333 10.4 64.6 9.86666C61 9.6 58.7333 10 57.6667 11.3333C56.4667 12.8 56.4667 13.3333 57.5333 13.3333C58.3333 13.3333 59 12.6667 59 12C59 11.2 59.6667 10.6667 60.3333 10.6667C62.3333 10.6667 61.9333 12.5333 59.1333 15.4667C56.7333 18.1333 56.7333 18.2667 60.4667 18.2667C63.8 18.2667 63.9333 18 61.9333 16.5333C59.8 14.9333 59.8 14.8 61.9333 14C63.2667 13.4667 63.9333 12.5333 63.5333 11.8667C63.1333 11.2 63.8 10.6667 65 10.6667C66.2 10.6667 66.7333 11.3333 66.2 12.1333C65.1333 13.8667 70.6 11.2 73.9333 8.4C75.9333 6.66666 76.0667 6.93333 75.5333 11.8667C75.2667 15.0667 75.6667 17.3333 76.4667 17.3333C77.2667 17.3333 77.4 16.6667 76.8667 15.7333C76.2 14.6667 76.7333 14.5333 78.4667 15.0667C80.8667 16 80.8667 15.8667 78.7333 14.1333C77.4 13.2 76.3333 11.6 76.3333 10.5333C76.3333 9.06666 76.6 9.06666 77.6667 10.6667C78.3333 11.7333 79 12 79 11.2C79 10.5333 78.2 8.8 77.2667 7.46666C75.6667 5.2 75.2667 5.2 73.4 7.2C70.7333 9.86666 69.1333 10 70.0667 7.46666C70.4667 6.4 69.5333 4.66666 67.8 3.6C65.1333 1.73333 64.7333 1.86666 63.2667 4.13333Z" fill="black"/>
<path d="M111.26 69.6223C108.208 67.5996 107.408 67.5936 107.395 69.3269C107.389 70.1269 108.053 70.5319 108.854 70.4045C109.656 70.1438 110.716 70.9517 111.108 72.0213C111.367 73.0899 111.23 73.6222 110.702 72.9516C110.039 72.4133 108.568 72.9358 107.226 74.1258C105.078 76.1099 104.947 75.8422 105.517 70.913C105.81 67.3151 105.427 65.0455 104.101 63.9689C102.644 62.7581 102.11 62.7541 102.103 63.8207C102.097 64.6207 102.758 65.2923 103.425 65.2973C104.225 65.3032 104.753 65.9738 104.748 66.6405C104.733 68.6404 102.87 68.2266 99.9574 65.4048C97.3086 62.9851 97.1753 62.9841 97.1475 66.7173C97.1227 70.0505 97.3884 70.1859 98.8699 68.1968C100.486 66.0754 100.619 66.0764 101.403 68.2157C101.927 69.5529 102.855 70.2265 103.525 69.8315C104.194 69.4365 104.723 70.1071 104.714 71.307C104.705 72.507 104.034 73.0354 103.238 72.4961C101.513 71.4166 104.139 76.9029 106.914 80.257C108.632 82.2698 108.365 82.4012 103.435 81.8312C100.237 81.5407 97.9678 81.9238 97.9618 82.7238C97.9559 83.5238 98.6215 83.6621 99.5588 83.1357C100.63 82.477 100.76 83.0113 100.214 84.7406C99.2624 87.1336 99.3957 87.1346 101.145 85.0142C102.088 83.6879 103.696 82.6331 104.763 82.641C106.229 82.652 106.227 82.9186 104.619 83.9734C103.548 84.6321 103.276 85.2967 104.076 85.3027C104.743 85.3076 106.482 84.5206 107.822 83.5972C110.101 82.0141 110.104 81.6141 108.118 79.7326C105.471 77.0462 105.349 75.4452 107.876 76.3974C108.939 76.8053 110.68 75.8849 111.759 74.1595C113.646 71.5068 113.515 71.1058 111.26 69.6223Z" fill="black"/>
<path d="M79.8 3.33334C78.8667 5.86668 80.2 9.33334 82.0667 9.33334C83 9.33334 83 8.80001 81.9333 7.73334C80.0667 5.86668 79.8 3.46668 81.6667 4.66668C82.4667 5.06668 82.6 4.53334 82.2 3.46668C81.1333 0.800011 80.8667 0.800011 79.8 3.33334Z" fill="black"/>
<path d="M36.3333 8C36.3333 8.66667 37 9.2 37.8 8.93333C38.6 8.8 39.6667 9.46667 39.9333 10.4C40.3333 11.3333 40.0667 12 39.4 11.7333C37.9333 11.3333 32.3333 15.0667 32.3333 16.5333C32.3333 17.0667 33.2667 16.9333 34.3333 16C35.4 15.2 36.8667 14.8 37.5333 15.3333C38.4667 15.7333 38.6 15.3333 38.2 14C37.6667 12.8 37.8 12 38.4667 12.1333C42.2 12.8 43 12 41.4 9.33333C39.6667 6.53333 36.3333 5.73333 36.3333 8Z" fill="black"/>
<path d="M32.8667 10.5334C32.8667 12 33.4 12.8 33.9333 12.5334C34.4667 12.1334 35 10.9334 35 9.86669C35 8.80002 34.4667 8.00002 33.9333 8.00002C33.4 8.00002 32.8667 9.20002 32.8667 10.5334Z" fill="black"/>
<path d="M47 10.6667C47 11.3334 47.9333 11.6 49 11.2C50.0667 10.6667 51.2667 11.3334 51.8 12.5334C52.2 13.7334 53.1333 14.2667 53.9333 13.8667C55.2667 12.9334 51.2667 9.46669 48.7333 9.33336C47.8 9.33336 47 9.86669 47 10.6667Z" fill="black"/>
<path d="M80.3333 12C80.3333 12.6667 81 13.3333 81.8 13.3333C82.4667 13.3333 82.7333 12.6667 82.3333 12C81.9333 11.2 81.2667 10.6667 80.8667 10.6667C80.6 10.6667 80.3333 11.2 80.3333 12Z" fill="black"/>
<path d="M69.8 13.8667C67.9334 14.9333 65.5334 15.4667 64.4667 15.0667C63.2667 14.8 63.5334 15.2 65 16.1333C66.4667 17.0667 69.1334 18 71 18.1333C72.8667 18.2667 73.2667 18.1333 72.0667 17.7333C69.1334 16.9333 68.8667 14.6667 71.6667 14.6667C72.7334 14.6667 73.6667 14 73.6667 13.3333C73.6667 11.7333 73.8 11.7333 69.8 13.8667Z" fill="black"/>
<path d="M80.3333 17.3334C79.1333 18.1334 79 18.6667 79.9333 18.6667C80.7333 18.6667 81.9333 18 82.3333 17.3334C83.4 15.7334 82.8667 15.7334 80.3333 17.3334Z" fill="black"/>
<path d="M35.6667 18.6667C36.0667 19.3333 36.7333 20 37.1333 20C37.4 20 37.6667 19.3333 37.6667 18.6667C37.6667 17.8667 37 17.3333 36.2 17.3333C35.5333 17.3333 35.2667 17.8667 35.6667 18.6667Z" fill="black"/>
<path d="M1.13334 31.6C0.733344 32.1334 0.333344 36.5334 0.333344 41.6V50.6667H26.0667H51.6667L51.5333 41.0667V31.3334L26.7333 31.0667C13.1333 30.9334 1.53334 31.2 1.13334 31.6Z" fill="black"/>
<path d="M96.3334 34.6667C97.1334 36.1334 97 37.4667 95.9334 38.5334C94.7334 39.8667 94.8667 40 96.6 39.3334C99.2667 38.2667 99.4 32.4 96.7334 32.4C95.6667 32.4 95.5334 33.2 96.3334 34.6667Z" fill="black"/>
<path d="M101.667 33.3334C100.6 34 100.067 34.8 100.333 35.2C100.733 35.4667 102.2 34.9334 103.533 33.8667C106.467 31.8667 104.867 31.3334 101.667 33.3334Z" fill="black"/>
<path d="M108.467 34.2667C109.4 35.8667 110.467 36.9334 110.867 36.5334C111.267 36.2667 110.467 34.9334 109.133 33.6C106.867 31.4667 106.733 31.4667 108.467 34.2667Z" fill="black"/>
<path d="M111.8 33.7334C112.2 35.0667 113 35.7334 113.4 35.3334C113.8 34.9334 113.4 33.8667 112.467 32.9334C111.133 31.7334 111 31.8667 111.8 33.7334Z" fill="black"/>
<path d="M105.667 35.6C107.933 36.6667 107.133 39.0667 104.867 38.1334C103.667 37.7334 101.4 38.4 99.6667 39.7334L96.7333 42.1334L100.6 46.6667C102.867 49.4667 104.067 50.2667 103.533 48.6667C102.6 46.1334 102.6 46.1334 105.267 48.2667C106.733 49.6 108.333 50.6667 109 50.6667C109.533 50.6667 108.733 49.4667 107 48C105.4 46.5334 103.4 45.7334 102.867 46.1334C102.2 46.5334 101.667 46.2667 101.667 45.4667C101.667 43.4667 104.067 42.4 105 44C105.4 44.6667 106.467 45.3334 107.4 45.3334C108.2 45.3334 107.667 44.5334 106.2 43.4667C104.467 42.1334 103.133 42 101.933 42.9334C99.4 45.2 98.4667 43.0667 100.867 40.5334C103 38.5334 103.267 38.5334 105.533 40.5334C106.867 41.7334 108.6 42.6667 109.533 42.6667C110.467 42.6667 110.733 43.2 110.333 44C109.933 44.6667 110.067 45.3334 110.733 45.3334C111.533 45.3334 112.333 44.4 112.867 43.3334C113.267 42.2667 113.133 41.4667 112.6 41.4667C108.867 42.1334 107 41.0667 107.4 38.5334C107.533 36.9334 106.867 35.4667 105.933 35.2C105 35.0667 104.867 35.2 105.667 35.6Z" fill="black"/>
<path d="M111 38.6667C109.8 39.4667 109.667 40 110.6 40C111.4 40 112.6 39.3333 113 38.6667C114.067 37.0667 113.533 37.0667 111 38.6667Z" fill="black"/>
<path d="M95 45.2C95 46 95.6667 46.6667 96.3333 46.6667C97.1333 46.6667 97.5333 47.3333 97.4 48.1333C97.1333 48.9333 97.8 49.8667 98.7333 50C99.6667 50.2667 99.8 50.1333 99 49.7333C98.3333 49.4667 97.9333 48.6667 98.3333 48C98.7333 47.4667 98.0667 46.2667 97 45.3333C95.6667 44.1333 95 44.1333 95 45.2Z" fill="black"/>
<path d="M109.667 48C112.067 49.6 113.667 49.7334 113.667 48.2667C113.667 47.7334 112.333 47.0667 110.733 47.0667C108.333 46.8 108.067 47.0667 109.667 48Z" fill="black"/>
<path d="M0.333344 72.5334V82.4L10.3333 82.2667L20.3333 82.1334V72.4V62.6667H10.3333H0.333344V72.5334Z" fill="black"/>
<path d="M35 63.8667C35 65.2 37.5333 67.2 38.3333 66.5334C38.4667 66.2667 37.9333 65.2 36.8667 64.2667C35.8 63.3334 35 63.2 35 63.8667Z" fill="black"/>
<path d="M44.3333 63.3333C44.3333 64.1333 45 65.4667 45.9333 66.4C48.6 69.0667 48.4667 72.8 45.6667 75.3333C42.8667 77.8667 42.0667 81.3333 44.4667 81.3333C45.1333 81.3333 45.4 80.8 45 80C44.6 79.3333 45.5333 77.3333 47.2667 75.6C50.4667 72.4 51 70.2667 49.4 68.5333C47.8 66.9333 48.2 65.0667 49.9333 66.1333C50.8667 66.6667 51 66.5333 50.4667 65.4667C49.9333 64.6667 48.8667 64.4 48.0667 64.8C47.2667 65.3333 46.2 64.8 45.5333 63.8667C44.8667 62.8 44.3333 62.6667 44.3333 63.3333Z" fill="black"/>
<path d="M95.1333 115.267L95.2667 137.667L99.2667 138.067C105 138.6 110.067 136.333 112.733 131.933C114.733 128.733 115.133 125.267 114.867 112.2C114.867 103.533 114.733 95.5333 114.6 94.6C114.467 93.5333 111.533 93 104.733 93H95L95.1333 115.267Z" fill="black"/>
<path d="M41 65.3334C40.6 66 40.8667 66.6667 41.5333 66.6667C42.3333 66.6667 43 66 43 65.3334C43 64.5334 42.7333 64 42.4667 64C42.0667 64 41.4 64.5334 41 65.3334Z" fill="black"/>
<path d="M34.7333 68.6667C36.4667 69.8667 38.2 70.5333 38.6 70.1333C39.1333 69.7333 40.8667 70.2667 42.6 71.3333C44.3333 72.5333 45.6667 72.8 45.6667 72C45.6667 71.3333 44.8667 70.6667 44.0667 70.6667C42.7333 70.6667 42.8667 70.2667 44.2 69.4667C45.4 68.6667 44.6 68.2667 41.5333 68.4C39 68.4 35.8 67.8667 34.3333 67.3333C32.0667 66.5333 32.2 66.8 34.7333 68.6667Z" fill="black"/>
<path d="M33.9334 72.5333C34.8667 73.6 36.2 74.1333 36.8667 73.7333C37.4 73.3333 37.1334 72.5333 36.2 71.8667C33.2667 70.1333 32.0667 70.4 33.9334 72.5333Z" fill="black"/>
<path d="M40.4667 74.2667C42.0667 76.2667 42.0667 76.4 40.0667 75.6C38.7334 75.2 37.6667 75.3334 37.6667 75.8667C37.6667 78 41.4 78.5334 42.2 76.5334C43.2667 73.7334 43.2667 73.7334 40.8667 72.8C38.8667 72 38.8667 72.2667 40.4667 74.2667Z" fill="black"/>
<path d="M48.6 76.2667C46.3333 78.5334 46.6 80.9334 49.4 82C51.2667 82.6667 51.4 82.5334 50.0667 81.2C48.2 79.3334 47.6667 76.8 49.4 77.8667C50.0667 78.2667 50.6 77.7334 50.6 76.6667C50.6 74.2667 50.6 74.2667 48.6 76.2667Z" fill="black"/>
<path d="M33.6667 77.3334C31.9333 78.4 32.0667 78.6667 34.0667 78.6667C35.2667 78.6667 36.3333 78 36.3333 77.3334C36.3333 75.7334 36.2 75.7334 33.6667 77.3334Z" fill="black"/>
<path d="M36.3333 80C35.2667 80.6667 34.0667 80.9334 33.6667 80.6667C33.1333 80.4 32.7333 80.9334 32.7333 82C32.7333 83.4667 33.2667 83.6 34.4667 82.5334C35.4 81.7334 36.7333 81.4667 37.4 81.7334C37.9333 82.1334 39.2667 82 40.2 81.4667C41.5333 80.5334 41.5333 80.2667 39.9333 79.6C39 79.2 37.2667 79.4667 36.3333 80Z" fill="black"/>
<path d="M41.6667 83.6C43.9333 84.6667 43.1333 86.5333 40.3333 86.2667C38.8667 86.1333 37.6667 85.6 37.6667 85.0667C37.6667 84.5333 37 84 36.3333 84C35.5333 84 35.9333 85.4667 37.1333 87.3333C38.4667 89.4667 38.7333 90.6667 37.8 90.6667C37 90.6667 35.9333 89.7333 35.5333 88.6667C35 87.6 34.3333 86.6667 33.8 86.6667C33.2667 86.6667 32.7333 87.6 32.7333 88.6667C32.7333 89.7333 33.1333 90.4 33.4 90C33.8 89.6 34.8667 90 35.9333 90.9333C36.8667 91.7333 38.0667 92 38.6 91.6C39.9333 90.2667 44.3333 93.3333 44.3333 95.4667C44.3333 96.6667 42.3333 99.6 39.8 102.133C37.4 104.533 35.6667 106.8 35.9333 107.2C36.8667 108.133 44.2 100 45.1333 97.0667C45.5333 95.7333 45.1333 93.7333 44.3333 92.6667C43.2667 91.3333 43.1333 90.6667 44.0667 90.6667C44.8667 90.6667 45.9333 91.2 46.3333 92C46.7333 92.6667 48.2 93.3333 49.4 93.2C51 93.2 50.8667 92.8 48.7333 92C47 91.3333 45.9333 90 46.2 89.0667C46.3333 88.1333 46.3333 87.7333 46.0667 88.2667C44.8667 90.4 43 89.2 43.4 86.5333C43.5333 84.9333 42.8667 83.4667 41.9333 83.2C41 83.0667 40.8667 83.2 41.6667 83.6ZM42.4667 90.2667C41.5333 91.2 39 89.3333 39 87.7333C39 86.9333 39.8 86.9333 41 88C42.2 88.9333 42.7333 90 42.4667 90.2667Z" fill="black"/>
<path d="M45.6667 84.1333C45.6667 84.8 46.3334 85.0667 47 84.6667C47.8 84.2667 48.3334 83.6 48.3334 83.2C48.3334 82.9333 47.8 82.6667 47 82.6667C46.3334 82.6667 45.6667 83.3333 45.6667 84.1333Z" fill="black"/>
<path d="M49.5333 84.2667C48.8667 85.4667 48.8667 90.6667 49.4 90C50.2 89.2 50.8667 84 50.0667 84C49.8 84 49.5333 84.1334 49.5333 84.2667Z" fill="black"/>
<path d="M63 128V138H73H83V128V118H73H63V128Z" fill="black"/>
<path d="M33.9334 93.8667C34.8667 94.9334 36.2 95.4667 36.8667 95.0667C37.4 94.6667 37.1334 93.8667 36.2 93.2C33.2667 91.4667 32.0667 91.7334 33.9334 93.8667Z" fill="black"/>
<path d="M0.333344 116C0.333344 133.2 0.733344 138.667 2.06668 138.8C4.33334 138.933 13.6667 138.933 17.4 138.8C20.3333 138.667 20.3333 138.533 20.3333 116V93.3334H10.3333H0.333344V116Z" fill="black"/>
<path d="M39.9333 95.6C40.6 97.2 40.3333 97.4667 39 96.6667C37.6667 95.8667 37.4 96.1334 38.0667 97.7334C38.6 99.3334 37.8 100.533 35.2667 101.867C33.2667 103.067 32.2 103.867 32.7333 104C35 104 38.7333 101.333 40.7333 98.1334C42.6 95.4667 42.6 94.8 41 94.1334C39.6667 93.7334 39.4 94.1334 39.9333 95.6Z" fill="black"/>
<path d="M47 96C47 96.8 47.9333 97.3333 49 97.3333C50.0667 97.3333 51 97.0667 51 96.8C51 96.5333 50.0667 96 49 95.4667C47.9333 95.0667 47 95.3333 47 96Z" fill="black"/>
<path d="M33.6667 98.6667C31.9333 99.7334 32.0667 100 34.0667 100C35.2667 100 36.3333 99.3334 36.3333 98.6667C36.3333 97.0667 36.2 97.0667 33.6667 98.6667Z" fill="black"/>
<path d="M45.1333 100.667C44.7333 101.733 45 102.667 45.5333 102.667C46.2 102.667 47 101.733 47.5333 100.667C47.9333 99.6 47.6667 98.6667 47.1333 98.6667C46.4667 98.6667 45.6667 99.6 45.1333 100.667Z" fill="black"/>
<path d="M49 101.333C48.6 102 48.8667 102.667 49.5333 102.667C50.3333 102.667 51 102 51 101.333C51 100.533 50.7333 100 50.4667 100C50.0667 100 49.4 100.533 49 101.333Z" fill="black"/>
<path d="M40.2 106.267C38.4667 108.533 38.4667 108.533 41 106.667C42.4667 105.6 43.9333 104.533 44.2 104.4C44.4667 104.133 44.2 104 43.4 104C42.6 104 41.1333 105.067 40.2 106.267Z" fill="black"/>
<path d="M46.3334 105.333C46.7334 106 47.4 106.667 47.8 106.667C48.0667 106.667 48.3334 106 48.3334 105.333C48.3334 104.533 47.6667 104 46.8667 104C46.2 104 45.9334 104.533 46.3334 105.333Z" fill="black"/>
<path d="M31.9334 120.667C31.6667 121.333 31.5334 125.6 31.5334 130C31.6667 138 31.6667 138 35.8 138.4C42.0667 139.067 51 130.267 51 123.733V119.067L41.6667 119.2C36.6 119.2 32.2 119.867 31.9334 120.667Z" fill="black"/>
<path d="M72.3655 31.1143C72.3257 31.1984 72.1663 31.2404 72.0335 31.1984C71.7546 31.1143 70.5327 31.4226 70.2804 31.6187C70.1874 31.6888 69.8687 31.8289 69.5632 31.913C69.271 32.0111 68.8194 32.2773 68.5804 32.5155C68.328 32.7537 68.0624 32.9638 67.9562 32.9779C67.7304 33.0199 66.7343 34.0567 66.7343 34.2529C66.7343 34.351 66.6148 34.5331 66.4554 34.6873C66.1234 35.0095 65.5124 36.2145 65.6319 36.3406C65.6718 36.3826 65.6187 36.5368 65.4991 36.6769C65.2335 36.9711 64.9679 38.1761 65.0874 38.5544C65.1273 38.6945 65.0874 38.9187 64.9944 39.0308C64.8882 39.1709 64.8749 39.4652 64.9413 40.0397C64.9944 40.474 65.0609 41.0625 65.0874 41.3287C65.1538 42.0853 65.4194 42.9821 65.6187 43.1642C65.7249 43.2483 65.8046 43.4164 65.8046 43.5285C65.8046 43.8508 66.3093 44.5514 67.3054 45.5602C67.8101 46.0926 68.3413 46.513 68.4741 46.513C68.6202 46.513 68.7663 46.597 68.8062 46.7091C68.846 46.8212 69.2179 47.0874 69.6296 47.2976C70.0413 47.5078 70.4796 47.732 70.5859 47.802C71.1304 48.1243 72.0202 48.5026 72.3523 48.5446C72.5648 48.5727 72.8038 48.6567 72.8835 48.7268C73.1359 48.937 74.3312 49.3153 74.464 49.2312C74.5304 49.1892 74.6765 49.2312 74.7827 49.3293C75.0218 49.5395 76.2702 50.156 76.4562 50.156C76.6023 50.156 78.3155 51.6552 78.2757 51.7253C78.2624 51.7533 78.3155 51.9074 78.4085 52.0755C78.4882 52.2437 78.621 52.7061 78.6874 53.0844C78.7937 53.6729 78.7671 53.869 78.528 54.3875C78.0898 55.3542 77.8109 55.6345 76.8015 56.1389C76.1109 56.4892 75.6062 56.6433 74.9687 56.6853C74.4905 56.7274 74.039 56.7834 73.946 56.8114C73.7468 56.8815 71.3429 56.5732 71.2499 56.4612C71.2101 56.4191 70.8249 56.237 70.3866 56.0548C68.7929 55.3823 67.2788 53.2105 66.8804 50.9967C66.7874 50.4922 66.6413 50.0439 66.5749 50.0018C66.4952 49.9458 66.4687 49.8057 66.5085 49.6936C66.5484 49.5675 66.5085 49.3993 66.4023 49.3153C66.2562 49.1892 66.1101 49.2732 65.6851 49.6796C65.3796 49.9598 65.1405 50.3101 65.1405 50.4502C65.1405 50.6043 65.0874 50.7164 65.0077 50.7164C64.8351 50.7164 64.3171 51.8093 64.2773 52.2577C64.264 52.4539 64.171 52.8882 64.0913 53.2245C63.8655 54.0652 64.0913 56.6433 64.4101 57.0216C64.5296 57.1617 64.596 57.3579 64.5429 57.4279C64.4366 57.6241 65.1273 58.9692 65.4327 59.1374C65.5655 59.2074 65.6718 59.3475 65.6718 59.4456C65.6718 59.6698 66.7609 60.8047 66.9734 60.8047C67.053 60.8047 67.1859 60.9168 67.2523 61.0709C67.3319 61.2111 67.7304 61.5053 68.1554 61.7155C68.5804 61.9397 69.0452 62.1779 69.178 62.2479C69.7093 62.5141 70.7984 62.8644 70.9577 62.8084C71.0507 62.7663 71.2101 62.8224 71.3163 62.9065C71.4226 63.0045 71.914 63.1166 72.4054 63.1446C72.9101 63.1867 73.6538 63.2427 74.0788 63.2848C74.5038 63.3268 74.9421 63.3128 75.0749 63.2567C75.1944 63.2007 75.6991 63.1446 76.2038 63.1166C76.6952 63.1026 77.1734 63.0185 77.253 62.9345C77.346 62.8364 77.5452 62.7663 77.7179 62.7663C78.1163 62.7663 79.4843 62.2199 79.4843 62.0517C79.4843 61.9817 79.5905 61.9256 79.7101 61.9256C80.0288 61.9256 81.3437 61.0569 81.3437 60.8468C81.3437 60.7487 81.4101 60.6646 81.503 60.6646C81.7155 60.6646 82.8046 59.5437 82.8046 59.3195C82.8046 59.2354 82.9241 59.0533 83.0835 58.8992C83.4155 58.5769 84.0265 57.3719 83.907 57.2458C83.8671 57.2038 83.9202 57.0496 84.0265 56.9235C84.4249 56.4471 84.5843 55.4523 84.5843 53.3786C84.5843 51.6832 84.5445 51.2489 84.332 50.7865C84.1991 50.4782 84.0796 50.1279 84.0663 50.0018C84.0265 49.6656 83.3491 48.5026 83.1366 48.4185C83.0304 48.3765 82.9374 48.2644 82.9374 48.1523C82.9374 47.9281 81.8616 46.7932 81.6359 46.7932C81.5429 46.7932 81.4366 46.6951 81.3835 46.583C81.2905 46.3168 80.2413 45.5322 79.8827 45.4621C79.7366 45.4341 79.5109 45.308 79.3913 45.1679C79.139 44.9157 78.103 44.4112 77.7976 44.4112C77.6913 44.4112 77.5187 44.3132 77.4124 44.2011C77.3062 44.089 76.8812 43.8928 76.4562 43.7667C76.0444 43.6406 75.5796 43.4865 75.4335 43.4164C74.4507 42.9961 74.1054 42.87 73.8265 42.87C73.6671 42.87 73.4812 42.7999 73.4413 42.7299C73.3882 42.6458 73.0429 42.4216 72.671 42.2114C71.9804 41.8331 71.9007 41.8051 71.6484 41.7631C71.5819 41.7631 71.5155 41.651 71.5155 41.5389C71.5155 41.4268 71.4624 41.3287 71.3827 41.3287C71.1835 41.3287 70.3866 40.0256 70.3601 39.6473C70.3468 39.4512 70.3999 38.9468 70.4796 38.5124C70.6124 37.7558 70.639 37.7137 71.4757 37.1112C71.9538 36.775 72.4452 36.4807 72.5648 36.4667C72.6843 36.4667 73.1757 36.3826 73.6538 36.3126C74.3312 36.2005 74.703 36.2145 75.314 36.3826C75.739 36.4947 76.1905 36.5928 76.2968 36.6068C76.403 36.6208 76.8679 36.9011 77.3194 37.2233C77.771 37.5596 78.2093 37.8258 78.2757 37.8258C78.3554 37.8258 78.4218 37.9099 78.4218 38.022C78.4218 38.3583 79.564 39.3391 80.0819 39.4512C80.5202 39.5352 80.6132 39.4932 81.0913 39.0028C81.3702 38.7086 81.6093 38.3863 81.6093 38.2882C81.6093 38.2041 81.689 38.064 81.7952 38.008C82.0609 37.8539 82.6718 36.6909 82.6718 36.3406C82.6718 36.1725 82.7648 35.9623 82.871 35.8642C82.9773 35.7661 83.0702 35.4579 83.0702 35.1636C83.0702 34.7293 82.964 34.5191 82.5124 34.0147C81.9015 33.3422 81.1843 32.7817 80.9585 32.7817C80.8921 32.7817 80.5999 32.6276 80.3343 32.4314C80.0687 32.2352 79.6038 32.0111 79.2984 31.927C78.9929 31.8429 78.5546 31.6748 78.3288 31.5627C77.678 31.2684 76.2968 31.0863 74.278 31.0162C73.0694 30.9742 72.4319 31.0162 72.3655 31.1143Z" fill="black"/>
<path d="M104.933 53.45C107.2 54.5167 106.4 56.3833 103.6 56.1167C102.133 55.9833 100.933 55.45 100.933 54.9167C100.933 54.3833 100.267 53.85 99.6 53.85C98.8 53.85 99.2 55.3167 100.4 57.1833C101.733 59.3167 102 60.5167 101.067 60.5167C100.267 60.5167 99.2 59.5833 98.8 58.5167C98.2667 57.45 97.6 56.5167 97.0667 56.5167C96.5333 56.5167 96 57.45 96 58.5167C96 59.5833 96.4 60.25 96.6667 59.85C97.0667 59.45 98.1333 59.85 99.2 60.7833C100.133 61.5833 101.333 61.85 101.867 61.45C103.2 60.1167 107.6 63.1833 107.6 65.3167C107.6 66.5167 105.6 69.45 103.067 71.9833C100.667 74.3833 98.9333 76.65 99.2 77.05C100.133 77.9833 107.467 69.85 108.4 66.9167C108.8 65.5833 108.4 63.5833 107.6 62.5167C106.533 61.1833 106.4 60.5167 107.333 60.5167C108.133 60.5167 109.2 61.05 109.6 61.85C110 62.5167 111.467 63.1833 112.667 63.05C114.267 63.05 114.133 62.65 112 61.85C110.267 61.1833 109.2 59.85 109.467 58.9167C109.6 57.9833 109.6 57.5833 109.333 58.1167C108.133 60.25 106.267 59.05 106.667 56.3833C106.8 54.7833 106.133 53.3167 105.2 53.05C104.267 52.9167 104.133 53.05 104.933 53.45ZM105.733 60.1167C104.8 61.05 102.267 59.1833 102.267 57.5833C102.267 56.7833 103.067 56.7833 104.267 57.85C105.467 58.7833 106 59.85 105.733 60.1167Z" fill="black"/>
<path d="M65.8644 74.1019C65.7449 74.1859 65.5589 74.4802 65.2136 75.1107C65.1074 75.3209 64.9613 75.8253 64.8949 76.2316C64.8152 76.652 64.6956 77.2965 64.616 77.6888C64.5363 78.0671 64.5097 78.5435 64.5496 78.7117C64.5894 78.8938 64.5628 79.132 64.4831 79.2301C64.3503 79.3982 64.2972 80.0427 64.1511 83.5036C64.1113 84.4704 64.0581 85.3251 64.0183 85.4232C63.9917 85.5213 64.0183 85.6333 64.0847 85.6754C64.1777 85.7314 64.1644 85.8575 64.0847 86.0257C64.005 86.1938 63.9785 88.5898 64.0183 92.7792C64.0714 99.1965 64.1378 101.312 64.2972 101.719C64.3371 101.831 64.3902 102.293 64.4167 102.727C64.43 103.176 64.5496 103.694 64.6691 103.89C64.7886 104.073 64.8816 104.325 64.8816 104.451C64.8816 104.563 65.0011 104.787 65.1339 104.927C65.373 105.179 65.5855 105.193 68.3347 105.179C70.7785 105.151 71.2832 105.123 71.3894 104.941C71.5355 104.689 71.4292 103.932 71.1636 103.316C71.0574 103.078 70.991 102.825 71.0175 102.755C71.0574 102.545 70.8449 101.242 70.7253 101.088C70.6722 101.004 70.5792 100.472 70.5261 99.8971C70.4863 99.3226 70.38 98.7621 70.3003 98.6781C70.2207 98.58 70.1941 98.4118 70.2339 98.3138C70.2738 98.2017 70.2472 97.6692 70.1941 97.0948C70.1011 96.156 70.1144 96.0299 70.4199 95.4274C70.6058 95.0771 70.8316 94.6427 70.9113 94.4746C70.991 94.2925 71.0972 94.1523 71.1503 94.1523C71.2566 94.1523 72.6246 93.2836 72.7175 93.1575C72.7574 93.1155 72.9964 93.0314 73.2488 93.0034C73.7402 92.9193 74.8425 93.3397 74.8425 93.6059C74.8425 93.676 75.148 94.1523 75.5066 94.6427C75.8785 95.1472 76.1441 95.5535 76.1175 95.5535C76.0113 95.5535 76.7019 97.1088 76.9011 97.333C77.0207 97.4451 77.0738 97.5852 77.0339 97.6552C76.9675 97.7813 77.3394 99.0424 77.5253 99.2946C77.5917 99.3786 77.6714 99.6449 77.698 99.8831C77.7644 100.373 78.03 101.452 78.1363 101.634C78.1761 101.719 78.2292 102.223 78.2558 102.755C78.2824 103.302 78.3621 103.806 78.4285 103.876C78.4816 103.932 78.5082 104.199 78.4683 104.451C78.3621 105.137 78.6941 105.207 82.0542 105.193C85.3746 105.165 85.4144 105.165 85.2816 104.185C85.2417 103.862 85.1886 103.148 85.1488 102.573C85.1222 102.013 85.0292 101.48 84.9496 101.396C84.8699 101.312 84.8035 101.046 84.8035 100.822C84.8035 100.219 84.5511 99.3086 84.3121 99.0284C84.2058 98.9022 84.1527 98.7341 84.1925 98.6641C84.2589 98.552 83.8605 97.5011 83.4886 96.8145C83.4355 96.7024 83.2363 96.2961 83.0636 95.9178C82.891 95.5535 82.6121 95.1051 82.4527 94.937C82.28 94.7829 82.1472 94.5587 82.1472 94.4606C82.1472 94.2364 81.3902 93.1435 81.1378 92.9894C81.0316 92.9333 80.9519 92.7932 80.9519 92.6951C80.9519 92.5971 80.6199 92.1487 80.2214 91.7003C79.823 91.266 79.491 90.8737 79.491 90.8456C79.491 90.8036 79.3582 90.5934 79.2121 90.3832C78.9863 90.047 78.9464 89.9069 79.0527 89.5706C79.1191 89.3604 79.2519 89.1783 79.3183 89.1783C79.5308 89.1783 80.6863 88.2395 80.8324 87.9452C80.8988 87.8191 81.0316 87.707 81.1246 87.707C81.3636 87.707 82.2269 86.7262 82.3464 86.3339C82.3863 86.1658 82.5058 86.0257 82.5988 86.0257C82.8113 86.0257 83.4753 84.7646 83.4753 84.3583C83.4753 84.2042 83.5285 84.0641 83.6082 84.0641C83.7941 84.0641 84.166 82.6069 84.073 82.2005C84.0199 82.0044 84.0464 81.8082 84.1261 81.7662C84.3121 81.6401 84.3121 80.9255 84.1261 79.9727C83.8738 78.6416 83.5949 77.7449 83.3957 77.6608C83.2894 77.6188 83.2097 77.4786 83.2097 77.3525C83.2097 77.0443 82.3199 75.9374 82.0808 75.9374C81.9746 75.9374 81.8285 75.8253 81.7621 75.6852C81.616 75.4049 80.3144 74.6063 80.1949 74.7184C80.155 74.7604 79.8894 74.6623 79.5972 74.5082C79.2652 74.326 78.8003 74.214 78.3488 74.1999C77.9503 74.1999 77.6316 74.1439 77.6316 74.0879C77.6316 73.9617 66.0238 73.9758 65.8644 74.1019ZM75.055 78.6556C75.6128 78.6836 76.0511 78.8097 76.5558 79.104C76.941 79.3282 77.366 79.5664 77.4988 79.6364C77.6316 79.7065 77.8175 80.0568 77.9371 80.407C78.1761 81.1637 78.3355 82.5228 78.1761 82.5228C78.123 82.5228 77.9636 82.775 77.8308 83.0832C77.698 83.3915 77.5121 83.7138 77.4191 83.7978C77.3128 83.8819 77.2597 83.994 77.2996 84.05C77.3261 84.1061 76.9941 84.4564 76.5691 84.8487C76.1441 85.227 75.7855 85.6193 75.7855 85.7034C75.7722 85.8015 75.7191 85.8996 75.6394 85.8996C75.3738 85.9416 75.2941 85.9836 74.6167 86.446C74.2316 86.6982 73.9128 86.9644 73.9128 87.0205C73.9128 87.0905 73.8199 87.1466 73.7136 87.1466C73.4878 87.1466 72.1597 87.8191 72.0535 87.9873C72.0136 88.0433 71.6816 88.1414 71.323 88.1834C70.7519 88.2675 70.6058 88.2395 70.3402 88.0013C69.9816 87.679 69.9285 87.3568 69.9285 85.6053C69.9285 84.0921 70.0082 83.0552 70.2074 82.1725C70.2871 81.7802 70.3667 81.3458 70.38 81.1777C70.38 81.0236 70.6855 80.4771 71.0308 79.9867C71.655 79.09 71.6816 79.0619 72.5316 78.8798C73.0097 78.7677 73.4347 78.6276 73.4746 78.5715C73.5011 78.5015 73.7003 78.4875 73.9128 78.5295C74.1121 78.5715 74.63 78.6276 75.055 78.6556Z" fill="black"/>
</svg>
